<svg id="svg" version="1.1" width="400" height="400" xmlns="http://www.w3.org/2000/svg" xmlns:xlink="http://www.w3.org/1999/xlink" style="display: block;"><g id="svgg"><path id="path0" d="" stroke="none" fill="#808080" fill-rule="evenodd"></path><path id="path1" d="M109.375 141.787 L 109.375 153.886 115.527 153.994 L 121.680 154.102 121.680 200.586 L 121.680 247.070 115.527 247.178 L 109.375 247.285 109.375 259.583 L 109.375 271.880 137.793 271.780 L 166.211 271.680 166.211 259.570 L 166.211 247.461 159.570 247.266 L 152.930 247.070 152.930 201.074 C 152.930 157.604,153.055 152.084,153.954 156.133 C 154.212 157.297,155.930 163.569,157.009 167.285 C 157.684 169.610,158.142 171.262,158.984 174.414 C 159.444 176.133,159.973 178.066,160.161 178.711 C 160.349 179.355,160.689 180.542,160.915 181.348 C 161.142 182.153,161.492 183.384,161.692 184.082 C 161.892 184.780,162.431 186.758,162.891 188.477 C 163.350 190.195,163.880 192.129,164.067 192.773 C 164.581 194.536,165.654 198.347,166.568 201.660 C 166.909 202.896,167.466 204.917,167.807 206.152 C 168.858 209.958,169.172 211.089,169.519 212.305 C 169.704 212.949,170.133 214.487,170.474 215.723 C 170.815 216.958,171.373 218.979,171.714 220.215 C 172.054 221.450,172.484 222.988,172.668 223.633 C 172.852 224.277,173.198 225.508,173.438 226.367 C 173.677 227.227,174.026 228.457,174.214 229.102 C 174.402 229.746,174.931 231.680,175.391 233.398 C 175.850 235.117,176.389 237.095,176.589 237.793 C 176.789 238.491,177.139 239.722,177.366 240.527 C 177.593 241.333,177.929 242.520,178.113 243.164 C 178.297 243.809,178.727 245.347,179.068 246.582 C 179.409 247.817,179.966 249.839,180.307 251.074 C 180.648 252.310,181.078 253.848,181.262 254.492 C 181.609 255.708,181.924 256.838,182.974 260.645 C 183.315 261.880,183.873 263.901,184.214 265.137 C 184.554 266.372,184.973 267.910,185.144 268.555 C 185.315 269.199,185.647 270.210,185.882 270.801 L 186.309 271.875 204.882 271.875 L 223.454 271.875 223.834 270.996 C 224.043 270.513,224.494 269.063,224.836 267.773 C 225.492 265.301,225.998 263.460,226.551 261.523 C 226.735 260.879,227.164 259.341,227.505 258.105 C 227.846 256.870,228.404 254.849,228.745 253.613 C 229.637 250.380,229.975 249.183,231.223 244.824 C 231.423 244.126,231.963 242.148,232.422 240.430 C 233.220 237.443,233.528 236.336,234.353 233.496 C 235.028 231.171,235.486 229.520,236.328 226.367 C 236.787 224.648,237.327 222.671,237.527 221.973 C 238.775 217.614,239.113 216.417,240.005 213.184 C 240.346 211.948,240.904 209.927,241.245 208.691 C 241.586 207.456,242.025 205.874,242.221 205.176 C 242.418 204.478,242.739 203.335,242.935 202.637 C 243.131 201.938,243.571 200.356,243.911 199.121 C 244.252 197.886,244.810 195.864,245.151 194.629 C 246.043 191.396,246.381 190.199,247.629 185.840 C 247.829 185.142,248.369 183.164,248.828 181.445 C 249.287 179.727,249.817 177.793,250.005 177.148 C 250.193 176.504,250.542 175.273,250.781 174.414 C 251.020 173.555,251.367 172.324,251.551 171.680 C 251.735 171.035,252.164 169.497,252.505 168.262 C 252.846 167.026,253.404 165.005,253.745 163.770 C 254.823 159.861,255.602 157.117,256.074 155.566 C 256.922 152.776,257.027 158.267,256.935 200.879 L 256.836 247.070 250.293 247.177 L 243.750 247.285 243.750 259.582 L 243.750 271.880 275.293 271.780 L 306.836 271.680 306.939 259.473 L 307.042 247.266 300.785 247.266 L 294.528 247.266 294.627 200.684 L 294.727 154.102 300.879 153.994 L 307.031 153.886 307.031 141.785 L 307.031 129.684 270.224 129.783 L 233.417 129.883 233.142 130.859 C 232.663 132.561,232.093 134.855,231.250 138.477 C 230.800 140.410,230.264 142.651,230.060 143.457 C 229.855 144.263,229.526 145.581,229.329 146.387 C 229.132 147.192,228.789 148.555,228.566 149.414 C 228.344 150.273,227.794 152.559,227.344 154.492 C 226.894 156.426,226.358 158.667,226.153 159.473 C 225.949 160.278,225.614 161.597,225.409 162.402 C 225.205 163.208,224.669 165.449,224.219 167.383 C 223.451 170.681,223.226 171.602,222.282 175.293 C 222.076 176.099,221.365 179.043,220.703 181.836 C 219.473 187.026,219.120 188.468,218.410 191.211 C 218.188 192.070,217.638 194.355,217.188 196.289 C 216.330 199.972,215.955 201.512,215.285 204.102 C 215.063 204.961,214.513 207.246,214.063 209.180 C 213.191 212.923,212.809 214.491,212.158 216.992 C 211.934 217.852,211.206 220.840,210.539 223.633 C 208.916 230.436,208.468 232.031,208.181 232.031 C 207.843 232.031,207.031 230.176,207.031 229.404 C 207.031 229.053,206.861 228.227,206.653 227.567 C 206.446 226.907,205.910 224.785,205.463 222.852 C 205.016 220.918,204.468 218.633,204.246 217.773 C 203.576 215.184,203.201 213.644,202.344 209.961 C 201.576 206.663,201.351 205.742,200.407 202.051 C 200.201 201.245,199.490 198.301,198.828 195.508 C 198.166 192.715,197.456 189.771,197.250 188.965 C 196.306 185.274,196.080 184.353,195.313 181.055 C 194.862 179.121,194.312 176.836,194.090 175.977 C 193.380 173.234,193.027 171.792,191.797 166.602 C 190.566 161.411,190.214 159.970,189.504 157.227 C 189.282 156.367,188.731 154.082,188.281 152.148 C 187.831 150.215,187.295 147.974,187.091 147.168 C 186.886 146.362,186.551 145.044,186.347 144.238 C 186.142 143.433,185.606 141.191,185.156 139.258 C 184.082 134.641,183.756 133.341,183.173 131.348 L 182.687 129.688 146.031 129.688 L 109.375 129.688 109.375 141.787 " stroke="none" fill="#ffffff" fill-rule="evenodd"></path><path id="path2" d="M231.543 0.266 C 229.878 0.353,228.516 0.592,228.516 0.798 C 228.516 1.003,227.559 1.172,226.390 1.172 C 225.221 1.172,224.156 1.348,224.023 1.563 C 223.891 1.777,223.001 1.953,222.047 1.953 C 221.093 1.953,220.313 2.129,220.313 2.344 C 220.313 2.559,219.620 2.734,218.773 2.734 C 217.926 2.734,217.125 2.910,216.992 3.125 C 216.859 3.340,216.146 3.516,215.407 3.516 C 214.667 3.516,214.063 3.691,214.063 3.906 C 214.063 4.121,213.458 4.297,212.718 4.297 C 211.979 4.297,211.266 4.473,211.133 4.688 C 211.000 4.902,210.473 5.078,209.961 5.078 C 209.449 5.078,208.922 5.254,208.789 5.469 C 208.656 5.684,208.129 5.859,207.617 5.859 C 207.105 5.859,206.578 6.035,206.445 6.250 C 206.313 6.465,205.860 6.641,205.440 6.641 C 205.020 6.641,204.372 6.796,203.999 6.986 C 203.626 7.175,202.793 7.548,202.148 7.812 C 201.504 8.077,200.671 8.450,200.298 8.639 C 199.925 8.829,199.354 8.984,199.029 8.984 C 198.704 8.984,198.438 9.160,198.438 9.375 C 198.438 9.590,197.998 9.766,197.461 9.766 C 196.924 9.766,196.484 9.941,196.484 10.156 C 196.484 10.371,196.143 10.547,195.726 10.547 C 195.309 10.547,194.859 10.723,194.727 10.938 C 194.594 11.152,194.144 11.328,193.727 11.328 C 193.310 11.328,192.969 11.504,192.969 11.719 C 192.969 11.934,192.617 12.109,192.188 12.109 C 191.758 12.109,191.406 12.285,191.406 12.500 C 191.406 12.715,191.069 12.891,190.658 12.891 C 190.246 12.891,189.850 13.022,189.779 13.184 C 189.662 13.447,187.608 14.627,185.257 15.781 C 184.775 16.017,184.380 16.343,184.378 16.504 C 184.376 16.665,184.023 16.797,183.594 16.797 C 183.164 16.797,182.813 16.973,182.813 17.188 C 182.813 17.402,182.549 17.578,182.227 17.578 C 181.904 17.578,181.641 17.754,181.641 17.969 C 181.641 18.184,181.377 18.359,181.055 18.359 C 180.732 18.359,180.469 18.535,180.469 18.750 C 180.469 18.965,180.238 19.141,179.956 19.141 C 179.675 19.141,179.103 19.448,178.687 19.824 C 178.270 20.200,177.446 20.757,176.855 21.062 C 176.265 21.367,175.781 21.762,175.781 21.941 C 175.781 22.120,175.518 22.266,175.195 22.266 C 174.873 22.266,174.609 22.441,174.609 22.656 C 174.609 22.871,174.346 23.047,174.023 23.047 C 173.701 23.047,173.438 23.185,173.438 23.353 C 173.438 23.522,172.954 23.946,172.363 24.295 C 171.772 24.645,170.917 25.254,170.462 25.649 C 170.007 26.044,169.057 26.807,168.350 27.344 C 163.657 30.911,152.786 41.782,149.219 46.475 C 148.682 47.182,147.919 48.132,147.524 48.587 C 147.129 49.042,146.520 49.897,146.170 50.488 C 145.821 51.079,145.397 51.562,145.228 51.563 C 145.060 51.563,144.922 51.826,144.922 52.148 C 144.922 52.471,144.746 52.734,144.531 52.734 C 144.316 52.734,144.141 52.998,144.141 53.320 C 144.141 53.643,143.995 53.906,143.816 53.906 C 143.637 53.906,143.242 54.390,142.937 54.980 C 142.632 55.571,142.075 56.395,141.699 56.812 C 141.323 57.228,141.016 57.800,141.016 58.081 C 141.016 58.363,140.840 58.594,140.625 58.594 C 140.410 58.594,140.234 58.857,140.234 59.180 C 140.234 59.502,140.059 59.766,139.844 59.766 C 139.629 59.766,139.453 60.029,139.453 60.352 C 139.453 60.674,139.277 60.938,139.063 60.938 C 138.848 60.938,138.672 61.289,138.672 61.719 C 138.672 62.148,138.540 62.501,138.379 62.503 C 138.218 62.505,137.892 62.900,137.656 63.382 C 136.502 65.733,135.322 67.787,135.059 67.904 C 134.897 67.975,134.766 68.371,134.766 68.783 C 134.766 69.194,134.590 69.531,134.375 69.531 C 134.160 69.531,133.984 69.903,133.984 70.357 C 133.984 71.146,133.940 71.155,133.022 70.553 C 132.492 70.206,131.789 69.922,131.459 69.922 C 131.129 69.922,130.859 69.746,130.859 69.531 C 130.859 69.316,130.420 69.141,129.883 69.141 C 129.346 69.141,128.906 68.965,128.906 68.750 C 128.906 68.535,128.565 68.359,128.148 68.359 C 127.731 68.359,127.281 68.184,127.148 67.969 C 127.016 67.754,126.488 67.578,125.977 67.578 C 125.465 67.578,124.937 67.402,124.805 67.187 C 124.672 66.973,123.958 66.797,123.219 66.797 C 122.480 66.797,121.875 66.621,121.875 66.406 C 121.875 66.191,120.996 66.016,119.922 66.016 C 118.848 66.016,117.969 65.840,117.969 65.625 C 117.969 65.376,114.844 65.234,109.375 65.234 C 103.906 65.234,100.781 65.376,100.781 65.625 C 100.781 65.840,99.902 66.016,98.828 66.016 C 97.754 66.016,96.875 66.191,96.875 66.406 C 96.875 66.621,96.270 66.797,95.531 66.797 C 94.792 66.797,94.078 66.973,93.945 67.188 C 93.813 67.402,93.285 67.578,92.773 67.578 C 92.262 67.578,91.734 67.754,91.602 67.969 C 91.469 68.184,91.019 68.359,90.602 68.359 C 90.185 68.359,89.844 68.535,89.844 68.750 C 89.844 68.965,89.404 69.141,88.867 69.141 C 88.330 69.141,87.891 69.316,87.891 69.531 C 87.891 69.746,87.662 69.922,87.383 69.922 C 86.664 69.922,84.772 70.841,84.769 71.191 C 84.767 71.353,84.502 71.484,84.180 71.484 C 83.857 71.484,83.594 71.660,83.594 71.875 C 83.594 72.090,83.242 72.266,82.813 72.266 C 82.383 72.266,82.031 72.441,82.031 72.656 C 82.031 72.871,81.768 73.047,81.445 73.047 C 81.123 73.047,80.859 73.223,80.859 73.438 C 80.859 73.652,80.596 73.828,80.273 73.828 C 79.951 73.828,79.688 73.966,79.688 74.135 C 79.688 74.303,79.116 74.774,78.418 75.181 C 76.648 76.213,69.509 83.297,68.350 85.171 C 67.824 86.022,67.259 86.719,67.095 86.719 C 66.931 86.719,66.797 86.982,66.797 87.305 C 66.797 87.627,66.621 87.891,66.406 87.891 C 66.191 87.891,66.016 88.154,66.016 88.477 C 66.016 88.799,65.840 89.063,65.625 89.063 C 65.410 89.063,65.234 89.414,65.234 89.844 C 65.234 90.273,65.059 90.625,64.844 90.625 C 64.629 90.625,64.453 90.889,64.453 91.211 C 64.453 91.533,64.321 91.798,64.160 91.800 C 63.809 91.804,62.891 93.695,62.891 94.414 C 62.891 94.693,62.715 94.922,62.500 94.922 C 62.285 94.922,62.109 95.361,62.109 95.898 C 62.109 96.436,61.934 96.875,61.719 96.875 C 61.504 96.875,61.328 97.216,61.328 97.633 C 61.328 98.050,61.152 98.500,60.938 98.633 C 60.723 98.766,60.547 99.293,60.547 99.805 C 60.547 100.316,60.371 100.844,60.156 100.977 C 59.941 101.109,59.766 101.823,59.766 102.562 C 59.766 103.301,59.590 103.906,59.375 103.906 C 59.160 103.906,58.984 104.785,58.984 105.859 C 58.984 106.934,58.809 107.813,58.594 107.813 C 58.345 107.813,58.203 110.938,58.203 116.406 C 58.203 121.875,58.345 125.000,58.594 125.000 C 58.809 125.000,58.984 125.879,58.984 126.953 C 58.984 128.027,59.160 128.906,59.375 128.906 C 59.590 128.906,59.766 129.511,59.766 130.250 C 59.766 130.990,59.941 131.703,60.156 131.836 C 60.371 131.969,60.547 132.496,60.547 133.008 C 60.547 133.520,60.723 134.047,60.938 134.180 C 61.152 134.312,61.328 134.762,61.328 135.179 C 61.328 135.596,61.504 135.938,61.719 135.938 C 61.934 135.938,62.109 136.377,62.109 136.914 C 62.109 137.451,62.285 137.891,62.500 137.891 C 62.715 137.891,62.891 138.242,62.891 138.672 C 62.891 139.102,63.066 139.453,63.281 139.453 C 63.496 139.453,63.672 139.698,63.672 139.997 C 63.672 140.595,62.851 141.016,61.687 141.016 C 61.275 141.016,60.938 141.191,60.938 141.406 C 60.938 141.621,60.508 141.797,59.984 141.797 C 59.460 141.797,58.922 141.973,58.789 142.188 C 58.656 142.402,58.206 142.578,57.789 142.578 C 57.372 142.578,57.031 142.754,57.031 142.969 C 57.031 143.184,56.680 143.359,56.250 143.359 C 55.820 143.359,55.469 143.535,55.469 143.750 C 55.469 143.965,55.230 144.141,54.938 144.141 C 54.296 144.141,49.468 146.559,49.284 146.973 C 49.212 147.134,48.817 147.266,48.405 147.266 C 47.993 147.266,47.656 147.421,47.656 147.611 C 47.656 147.800,47.349 148.053,46.973 148.173 C 46.302 148.385,44.135 149.615,43.750 150.001 C 43.643 150.108,43.071 150.446,42.480 150.750 C 41.890 151.055,41.406 151.450,41.406 151.629 C 41.406 151.807,41.143 151.953,40.820 151.953 C 40.498 151.953,40.234 152.129,40.234 152.344 C 40.234 152.559,39.971 152.734,39.648 152.734 C 39.326 152.734,39.063 152.872,39.063 153.041 C 39.063 153.209,38.542 153.655,37.905 154.031 C 37.268 154.407,36.521 154.929,36.245 155.191 C 35.968 155.453,34.775 156.447,33.594 157.399 C 30.825 159.630,23.692 166.762,21.461 169.531 C 20.509 170.713,19.516 171.906,19.254 172.182 C 18.992 172.459,18.470 173.206,18.094 173.842 C 17.717 174.479,17.272 175.000,17.103 175.000 C 16.935 175.000,16.797 175.264,16.797 175.586 C 16.797 175.908,16.621 176.172,16.406 176.172 C 16.191 176.172,16.016 176.436,16.016 176.758 C 16.016 177.080,15.870 177.344,15.691 177.344 C 15.512 177.344,15.117 177.827,14.813 178.418 C 14.508 179.009,14.171 179.580,14.063 179.688 C 13.677 180.072,12.448 182.240,12.235 182.910 C 12.116 183.286,11.863 183.594,11.673 183.594 C 11.483 183.594,11.328 183.931,11.328 184.342 C 11.328 184.754,11.196 185.150,11.035 185.221 C 10.622 185.405,8.203 190.233,8.203 190.875 C 8.203 191.167,8.027 191.406,7.813 191.406 C 7.598 191.406,7.422 191.758,7.422 192.188 C 7.422 192.617,7.246 192.969,7.031 192.969 C 6.816 192.969,6.641 193.310,6.641 193.727 C 6.641 194.144,6.465 194.594,6.250 194.727 C 6.035 194.859,5.859 195.397,5.859 195.921 C 5.859 196.446,5.684 196.875,5.469 196.875 C 5.254 196.875,5.078 197.304,5.078 197.829 C 5.078 198.353,4.902 198.891,4.688 199.023 C 4.473 199.156,4.297 199.684,4.297 200.195 C 4.297 200.707,4.121 201.234,3.906 201.367 C 3.691 201.500,3.516 202.126,3.516 202.757 C 3.516 203.389,3.340 203.906,3.125 203.906 C 2.910 203.906,2.734 204.511,2.734 205.250 C 2.734 205.990,2.559 206.703,2.344 206.836 C 2.129 206.969,1.953 207.672,1.953 208.398 C 1.953 209.125,1.777 209.828,1.563 209.961 C 1.348 210.094,1.172 210.948,1.172 211.859 C 1.172 212.770,0.952 213.735,0.684 214.004 C -0.025 214.713,-0.025 247.006,0.684 247.715 C 0.952 247.983,1.172 248.949,1.172 249.860 C 1.172 250.771,1.348 251.625,1.562 251.758 C 1.777 251.891,1.953 252.594,1.953 253.320 C 1.953 254.047,2.129 254.750,2.344 254.883 C 2.559 255.016,2.734 255.729,2.734 256.468 C 2.734 257.208,2.910 257.813,3.125 257.813 C 3.340 257.813,3.516 258.329,3.516 258.961 C 3.516 259.593,3.691 260.219,3.906 260.352 C 4.121 260.484,4.297 261.012,4.297 261.523 C 4.297 262.035,4.473 262.563,4.688 262.695 C 4.902 262.828,5.078 263.366,5.078 263.890 C 5.078 264.415,5.254 264.844,5.469 264.844 C 5.684 264.844,5.859 265.273,5.859 265.797 C 5.859 266.322,6.035 266.859,6.250 266.992 C 6.465 267.125,6.641 267.575,6.641 267.992 C 6.641 268.409,6.816 268.750,7.031 268.750 C 7.246 268.750,7.422 269.102,7.422 269.531 C 7.422 269.961,7.598 270.313,7.813 270.313 C 8.027 270.313,8.203 270.551,8.203 270.844 C 8.203 271.485,10.622 276.314,11.035 276.497 C 11.196 276.569,11.328 276.965,11.328 277.376 C 11.328 277.788,11.483 278.125,11.673 278.125 C 11.863 278.125,12.116 278.433,12.235 278.809 C 12.448 279.479,13.677 281.647,14.063 282.031 C 14.171 282.139,14.508 282.710,14.813 283.301 C 15.117 283.892,15.512 284.375,15.691 284.375 C 15.870 284.375,16.016 284.639,16.016 284.961 C 16.016 285.283,16.191 285.547,16.406 285.547 C 16.621 285.547,16.797 285.811,16.797 286.133 C 16.797 286.455,16.935 286.719,17.103 286.719 C 17.272 286.719,17.717 287.240,18.094 287.876 C 18.470 288.513,18.992 289.260,19.254 289.537 C 19.516 289.813,20.509 291.006,21.461 292.188 C 23.692 294.956,30.825 302.089,33.594 304.320 C 34.775 305.272,35.968 306.266,36.245 306.528 C 36.521 306.790,37.268 307.312,37.905 307.688 C 38.542 308.064,39.063 308.509,39.063 308.678 C 39.063 308.846,39.326 308.984,39.648 308.984 C 39.971 308.984,40.234 309.160,40.234 309.375 C 40.234 309.590,40.498 309.766,40.820 309.766 C 41.143 309.766,41.406 309.912,41.406 310.090 C 41.406 310.269,41.890 310.664,42.480 310.969 C 43.071 311.273,43.643 311.610,43.750 311.718 C 44.135 312.104,46.302 313.334,46.973 313.546 C 47.349 313.665,47.656 313.918,47.656 314.108 C 47.656 314.298,47.993 314.453,48.405 314.453 C 48.817 314.453,49.212 314.585,49.284 314.746 C 49.468 315.160,54.296 317.578,54.938 317.578 C 55.230 317.578,55.469 317.754,55.469 317.969 C 55.469 318.184,55.820 318.359,56.250 318.359 C 56.680 318.359,57.031 318.535,57.031 318.750 C 57.031 318.965,57.372 319.141,57.789 319.141 C 58.206 319.141,58.656 319.316,58.789 319.531 C 58.922 319.746,59.460 319.922,59.984 319.922 C 60.508 319.922,60.938 320.098,60.938 320.313 C 60.938 320.527,61.367 320.703,61.891 320.703 C 62.415 320.703,62.953 320.879,63.086 321.094 C 63.219 321.309,63.746 321.484,64.258 321.484 C 64.770 321.484,65.297 321.660,65.430 321.875 C 65.562 322.090,66.188 322.266,66.820 322.266 C 67.452 322.266,67.969 322.441,67.969 322.656 C 67.969 322.871,68.574 323.047,69.313 323.047 C 70.052 323.047,70.766 323.223,70.898 323.438 C 71.031 323.652,71.734 323.828,72.461 323.828 C 73.188 323.828,73.891 324.004,74.023 324.219 C 74.156 324.434,75.035 324.609,75.977 324.609 C 76.918 324.609,77.797 324.785,77.930 325.000 C 78.062 325.215,79.205 325.391,80.469 325.391 C 81.732 325.391,82.875 325.566,83.008 325.781 C 83.161 326.029,87.862 326.172,95.824 326.172 L 108.398 326.172 108.296 353.979 C 108.228 372.377,108.327 381.920,108.589 382.182 C 108.806 382.400,108.984 383.246,108.984 384.062 C 108.984 384.879,109.160 385.547,109.375 385.547 C 109.590 385.547,109.766 385.882,109.766 386.291 C 109.766 389.919,118.675 398.828,122.303 398.828 C 122.712 398.828,123.047 399.004,123.047 399.219 C 123.047 399.738,134.130 399.738,135.162 399.219 C 135.588 399.004,136.287 398.652,136.713 398.437 C 137.140 398.223,137.755 398.047,138.081 398.047 C 138.406 398.047,138.672 397.871,138.672 397.656 C 138.672 397.441,138.936 397.266,139.258 397.266 C 139.580 397.266,139.844 397.090,139.844 396.875 C 139.844 396.660,140.021 396.484,140.238 396.484 C 140.987 396.484,143.312 394.215,177.344 360.269 L 211.523 326.175 271.950 326.173 C 311.811 326.172,332.458 326.039,332.617 325.781 C 332.750 325.566,333.805 325.391,334.961 325.391 C 336.117 325.391,337.172 325.215,337.305 325.000 C 337.437 324.785,338.228 324.609,339.063 324.609 C 339.897 324.609,340.688 324.434,340.820 324.219 C 340.953 324.004,341.667 323.828,342.406 323.828 C 343.145 323.828,343.750 323.652,343.750 323.438 C 343.750 323.223,344.267 323.047,344.899 323.047 C 345.531 323.047,346.156 322.871,346.289 322.656 C 346.422 322.441,346.949 322.266,347.461 322.266 C 347.973 322.266,348.500 322.090,348.633 321.875 C 348.766 321.660,349.303 321.484,349.828 321.484 C 350.352 321.484,350.781 321.309,350.781 321.094 C 350.781 320.879,351.047 320.703,351.372 320.703 C 351.698 320.703,352.313 320.527,352.740 320.312 C 353.166 320.098,353.865 319.746,354.292 319.531 C 354.718 319.316,355.334 319.141,355.659 319.141 C 355.984 319.141,356.250 318.965,356.250 318.750 C 356.250 318.535,356.587 318.359,356.999 318.359 C 357.410 318.359,357.806 318.228,357.878 318.066 C 357.995 317.803,360.048 316.623,362.399 315.469 C 362.881 315.233,363.277 314.907,363.278 314.746 C 363.280 314.585,363.545 314.453,363.867 314.453 C 364.189 314.453,364.453 314.277,364.453 314.063 C 364.453 313.848,364.717 313.672,365.039 313.672 C 365.361 313.672,365.625 313.496,365.625 313.281 C 365.625 313.066,365.889 312.891,366.211 312.891 C 366.533 312.891,366.797 312.715,366.797 312.500 C 366.797 312.285,367.061 312.109,367.383 312.109 C 367.705 312.109,367.969 311.971,367.969 311.803 C 367.969 311.634,368.452 311.210,369.043 310.859 C 372.433 308.848,383.067 298.215,385.078 294.824 C 385.429 294.233,385.853 293.750,386.022 293.750 C 386.190 293.750,386.328 293.486,386.328 293.164 C 386.328 292.842,386.504 292.578,386.719 292.578 C 386.934 292.578,387.109 292.314,387.109 291.992 C 387.109 291.670,387.285 291.406,387.500 291.406 C 387.715 291.406,387.891 291.143,387.891 290.820 C 387.891 290.498,388.066 290.234,388.281 290.234 C 388.496 290.234,388.672 289.971,388.672 289.648 C 388.672 289.326,388.804 289.061,388.965 289.059 C 389.126 289.058,389.451 288.662,389.688 288.181 C 390.842 285.830,392.022 283.776,392.285 283.659 C 392.446 283.587,392.578 283.192,392.578 282.780 C 392.578 282.368,392.754 282.031,392.969 282.031 C 393.184 282.031,393.359 281.765,393.359 281.440 C 393.359 281.115,393.563 280.456,393.811 279.975 C 394.759 278.142,394.922 277.727,394.922 277.154 C 394.922 276.829,395.098 276.563,395.313 276.563 C 395.527 276.563,395.703 276.133,395.703 275.609 C 395.703 275.085,395.879 274.547,396.094 274.414 C 396.309 274.281,396.484 273.754,396.484 273.242 C 396.484 272.730,396.660 272.203,396.875 272.070 C 397.090 271.938,397.266 271.312,397.266 270.680 C 397.266 270.048,397.441 269.531,397.656 269.531 C 397.871 269.531,398.047 268.926,398.047 268.187 C 398.047 267.448,398.223 266.734,398.438 266.602 C 398.652 266.469,398.828 265.703,398.828 264.899 C 398.828 264.095,399.048 263.218,399.316 262.949 C 399.690 262.576,399.805 258.979,399.805 247.656 C 399.805 236.333,399.690 232.737,399.316 232.363 C 399.048 232.095,398.828 231.217,398.828 230.414 C 398.828 229.610,398.652 228.844,398.438 228.711 C 398.223 228.578,398.047 227.865,398.047 227.125 C 398.047 226.386,397.871 225.781,397.656 225.781 C 397.441 225.781,397.266 225.264,397.266 224.632 C 397.266 224.001,397.090 223.375,396.875 223.242 C 396.660 223.109,396.484 222.582,396.484 222.070 C 396.484 221.559,396.309 221.031,396.094 220.898 C 395.879 220.766,395.703 220.228,395.703 219.704 C 395.703 219.179,395.527 218.750,395.313 218.750 C 395.098 218.750,394.922 218.484,394.922 218.159 C 394.922 217.834,394.719 217.174,394.470 216.694 C 393.523 214.861,393.359 214.446,393.359 213.872 C 393.359 213.547,393.184 213.281,392.969 213.281 C 392.754 213.281,392.578 212.944,392.578 212.533 C 392.578 212.121,392.446 211.725,392.285 211.654 C 392.022 211.537,390.842 209.483,389.688 207.132 C 389.451 206.650,389.126 206.255,388.965 206.253 C 388.804 206.251,388.672 205.986,388.672 205.664 C 388.672 205.342,388.496 205.078,388.281 205.078 C 388.066 205.078,387.891 204.814,387.891 204.492 C 387.891 204.170,387.715 203.906,387.500 203.906 C 387.285 203.906,387.109 203.643,387.109 203.320 C 387.109 202.998,386.934 202.734,386.719 202.734 C 386.504 202.734,386.328 202.471,386.328 202.148 C 386.328 201.826,386.190 201.563,386.022 201.563 C 385.853 201.563,385.429 201.079,385.078 200.488 C 383.067 197.098,372.433 186.464,369.043 184.453 C 368.452 184.103,367.969 183.678,367.969 183.510 C 367.969 183.341,367.705 183.203,367.383 183.203 C 367.061 183.203,366.797 183.027,366.797 182.813 C 366.797 182.598,366.533 182.422,366.211 182.422 C 365.889 182.422,365.625 182.246,365.625 182.031 C 365.625 181.816,365.361 181.641,365.039 181.641 C 364.717 181.641,364.453 181.465,364.453 181.250 C 364.453 181.035,364.200 180.859,363.890 180.859 C 363.104 180.859,362.716 180.096,363.237 179.575 C 363.476 179.336,363.672 178.824,363.672 178.437 C 363.672 178.051,363.848 177.734,364.063 177.734 C 364.277 177.734,364.453 177.295,364.453 176.758 C 364.453 176.221,364.629 175.781,364.844 175.781 C 365.059 175.781,365.234 175.515,365.234 175.190 C 365.234 174.865,365.390 174.294,365.579 173.920 C 365.769 173.547,366.141 172.715,366.406 172.070 C 366.671 171.426,367.043 170.593,367.233 170.220 C 367.423 169.847,367.578 169.198,367.578 168.778 C 367.578 168.358,367.754 167.906,367.969 167.773 C 368.184 167.641,368.359 167.113,368.359 166.602 C 368.359 166.090,368.535 165.562,368.750 165.430 C 368.965 165.297,369.141 164.770,369.141 164.258 C 369.141 163.746,369.316 163.219,369.531 163.086 C 369.746 162.953,369.922 162.240,369.922 161.500 C 369.922 160.761,370.098 160.156,370.313 160.156 C 370.527 160.156,370.703 159.551,370.703 158.812 C 370.703 158.073,370.879 157.359,371.094 157.227 C 371.309 157.094,371.484 156.292,371.484 155.446 C 371.484 154.599,371.660 153.906,371.875 153.906 C 372.090 153.906,372.266 153.126,372.266 152.171 C 372.266 151.217,372.441 150.328,372.656 150.195 C 372.871 150.063,373.047 148.997,373.047 147.829 C 373.047 146.660,373.223 145.703,373.438 145.703 C 373.663 145.703,373.828 144.474,373.828 142.796 C 373.828 141.198,374.004 139.781,374.219 139.648 C 374.467 139.495,374.609 134.574,374.609 126.172 C 374.609 117.770,374.467 112.849,374.219 112.695 C 374.004 112.563,373.828 111.146,373.828 109.547 C 373.828 107.870,373.663 106.641,373.438 106.641 C 373.223 106.641,373.047 105.684,373.047 104.515 C 373.047 103.346,372.871 102.281,372.656 102.148 C 372.441 102.016,372.266 101.126,372.266 100.172 C 372.266 99.218,372.090 98.438,371.875 98.438 C 371.660 98.438,371.484 97.745,371.484 96.898 C 371.484 96.051,371.309 95.250,371.094 95.117 C 370.879 94.984,370.703 94.271,370.703 93.532 C 370.703 92.792,370.527 92.188,370.313 92.188 C 370.098 92.188,369.922 91.583,369.922 90.843 C 369.922 90.104,369.746 89.391,369.531 89.258 C 369.316 89.125,369.141 88.598,369.141 88.086 C 369.141 87.574,368.965 87.047,368.750 86.914 C 368.535 86.781,368.359 86.254,368.359 85.742 C 368.359 85.230,368.184 84.703,367.969 84.570 C 367.754 84.438,367.578 83.985,367.578 83.565 C 367.578 83.145,367.423 82.497,367.233 82.124 C 367.043 81.751,366.671 80.918,366.406 80.273 C 366.141 79.629,365.769 78.796,365.579 78.423 C 365.390 78.050,365.234 77.479,365.234 77.154 C 365.234 76.829,365.059 76.563,364.844 76.563 C 364.629 76.563,364.453 76.123,364.453 75.586 C 364.453 75.049,364.277 74.609,364.063 74.609 C 363.848 74.609,363.672 74.268,363.672 73.851 C 363.672 73.434,363.496 72.984,363.281 72.852 C 363.066 72.719,362.891 72.269,362.891 71.852 C 362.891 71.435,362.715 71.094,362.500 71.094 C 362.285 71.094,362.109 70.742,362.109 70.313 C 362.109 69.883,361.934 69.531,361.719 69.531 C 361.504 69.531,361.328 69.194,361.328 68.783 C 361.328 68.371,361.196 67.975,361.035 67.904 C 360.772 67.787,359.592 65.733,358.438 63.382 C 358.201 62.900,357.876 62.505,357.715 62.503 C 357.554 62.501,357.422 62.148,357.422 61.719 C 357.422 61.289,357.246 60.938,357.031 60.938 C 356.816 60.938,356.641 60.674,356.641 60.352 C 356.641 60.029,356.465 59.766,356.250 59.766 C 356.035 59.766,355.859 59.502,355.859 59.180 C 355.859 58.857,355.684 58.594,355.469 58.594 C 355.254 58.594,355.078 58.363,355.078 58.081 C 355.078 57.800,354.771 57.228,354.395 56.812 C 354.019 56.395,353.462 55.571,353.157 54.980 C 352.852 54.390,352.456 53.906,352.278 53.906 C 352.099 53.906,351.953 53.643,351.953 53.320 C 351.953 52.998,351.777 52.734,351.563 52.734 C 351.348 52.734,351.172 52.471,351.172 52.148 C 351.172 51.826,351.034 51.563,350.865 51.563 C 350.697 51.563,350.273 51.079,349.923 50.488 C 349.574 49.897,348.964 49.042,348.570 48.587 C 348.175 48.132,347.412 47.182,346.875 46.475 C 343.308 41.782,332.437 30.911,327.743 27.344 C 327.037 26.807,326.086 26.044,325.632 25.649 C 325.177 25.254,324.321 24.645,323.730 24.295 C 323.140 23.946,322.656 23.522,322.656 23.353 C 322.656 23.185,322.393 23.047,322.070 23.047 C 321.748 23.047,321.484 22.871,321.484 22.656 C 321.484 22.441,321.221 22.266,320.898 22.266 C 320.576 22.266,320.313 22.120,320.313 21.941 C 320.313 21.762,319.829 21.367,319.238 21.062 C 318.647 20.757,317.823 20.200,317.407 19.824 C 316.990 19.448,316.419 19.141,316.137 19.141 C 315.856 19.141,315.625 18.965,315.625 18.750 C 315.625 18.535,315.361 18.359,315.039 18.359 C 314.717 18.359,314.453 18.184,314.453 17.969 C 314.453 17.754,314.189 17.578,313.867 17.578 C 313.545 17.578,313.281 17.402,313.281 17.188 C 313.281 16.973,312.930 16.797,312.500 16.797 C 312.070 16.797,311.717 16.665,311.716 16.504 C 311.714 16.343,311.319 16.017,310.837 15.781 C 308.486 14.627,306.432 13.447,306.315 13.184 C 306.243 13.022,305.848 12.891,305.436 12.891 C 305.024 12.891,304.688 12.715,304.688 12.500 C 304.688 12.285,304.336 12.109,303.906 12.109 C 303.477 12.109,303.125 11.934,303.125 11.719 C 303.125 11.504,302.784 11.328,302.367 11.328 C 301.950 11.328,301.500 11.152,301.367 10.938 C 301.234 10.723,300.785 10.547,300.368 10.547 C 299.951 10.547,299.609 10.371,299.609 10.156 C 299.609 9.941,299.170 9.766,298.633 9.766 C 298.096 9.766,297.656 9.590,297.656 9.375 C 297.656 9.160,297.390 8.984,297.065 8.984 C 296.740 8.984,296.169 8.829,295.795 8.639 C 295.422 8.450,294.590 8.077,293.945 7.813 C 293.301 7.548,292.468 7.175,292.095 6.986 C 291.722 6.796,291.073 6.641,290.653 6.641 C 290.233 6.641,289.781 6.465,289.648 6.250 C 289.516 6.035,288.988 5.859,288.477 5.859 C 287.965 5.859,287.437 5.684,287.305 5.469 C 287.172 5.254,286.645 5.078,286.133 5.078 C 285.621 5.078,285.094 4.902,284.961 4.688 C 284.828 4.473,284.115 4.297,283.375 4.297 C 282.636 4.297,282.031 4.121,282.031 3.906 C 282.031 3.691,281.426 3.516,280.687 3.516 C 279.948 3.516,279.234 3.340,279.102 3.125 C 278.969 2.910,278.167 2.734,277.321 2.734 C 276.474 2.734,275.781 2.559,275.781 2.344 C 275.781 2.129,275.001 1.953,274.046 1.953 C 273.092 1.953,272.203 1.777,272.070 1.563 C 271.938 1.348,270.887 1.172,269.736 1.172 C 268.453 1.172,267.583 0.990,267.487 0.702 C 267.330 0.233,238.844 -0.112,231.543 0.266 M183.081 129.785 C 183.282 130.054,183.999 132.559,184.675 135.352 C 188.252 150.126,192.156 166.200,194.922 177.539 C 196.022 182.051,197.604 188.555,198.438 191.992 C 199.271 195.430,200.853 201.934,201.953 206.445 C 204.264 215.920,206.881 226.709,207.519 229.395 C 207.973 231.304,208.594 231.894,208.594 230.416 C 208.594 229.958,208.764 228.947,208.971 228.170 C 209.179 227.393,210.047 223.857,210.900 220.313 C 211.754 216.768,213.353 210.176,214.453 205.664 C 215.554 201.152,217.137 194.648,217.971 191.211 C 220.652 180.164,222.953 170.693,224.804 163.086 C 225.797 159.004,227.333 152.676,228.217 149.023 C 229.100 145.371,230.546 139.482,231.430 135.938 L 233.036 129.492 270.131 129.492 L 307.227 129.492 307.227 141.992 L 307.227 154.492 300.977 154.688 L 294.727 154.883 294.727 200.781 L 294.727 246.680 301.074 246.787 L 307.422 246.894 307.422 259.352 C 307.422 267.302,307.281 271.857,307.032 271.940 C 306.817 272.012,292.315 272.024,274.805 271.968 L 242.969 271.866 242.969 259.380 L 242.969 246.893 249.707 246.787 L 256.445 246.680 256.545 202.051 C 256.638 160.027,256.523 154.550,255.631 158.496 C 255.358 159.706,254.272 163.687,253.100 167.773 C 252.668 169.277,252.148 171.123,251.943 171.875 C 251.524 173.409,248.638 183.827,248.047 185.938 C 247.836 186.689,246.957 189.854,246.094 192.969 C 245.230 196.084,244.351 199.248,244.141 200.000 C 243.930 200.752,243.051 203.916,242.188 207.031 C 241.324 210.146,240.445 213.311,240.234 214.063 C 240.024 214.814,239.145 217.979,238.281 221.094 C 236.588 227.203,236.021 229.228,235.493 231.055 C 235.307 231.699,234.628 234.160,233.984 236.523 C 233.341 238.887,232.662 241.348,232.475 241.992 C 231.921 243.912,231.327 246.047,230.084 250.586 C 229.437 252.949,228.755 255.410,228.569 256.055 C 228.050 257.851,227.463 259.956,226.172 264.648 C 225.522 267.012,224.789 269.601,224.544 270.403 L 224.098 271.860 205.176 271.965 C 183.558 272.085,185.713 272.428,184.700 268.708 C 184.268 267.120,183.769 265.293,183.592 264.648 C 183.415 264.004,182.984 262.422,182.634 261.133 C 182.004 258.809,180.775 254.402,180.129 252.148 C 179.521 250.026,178.932 247.908,177.740 243.555 C 177.093 241.191,176.412 238.730,176.225 238.086 C 175.671 236.166,175.077 234.031,173.834 229.492 C 173.187 227.129,172.505 224.668,172.319 224.023 C 171.791 222.196,171.225 220.172,169.531 214.063 C 168.668 210.947,167.789 207.783,167.578 207.031 C 167.367 206.279,166.488 203.115,165.625 200.000 C 164.762 196.885,163.883 193.721,163.672 192.969 C 163.461 192.217,162.582 189.053,161.719 185.938 C 160.855 182.822,159.976 179.658,159.765 178.906 C 159.554 178.154,158.502 174.375,157.428 170.508 C 156.354 166.641,155.314 162.949,155.118 162.305 C 154.921 161.660,154.536 160.166,154.262 158.984 C 153.988 157.803,153.619 156.668,153.443 156.463 C 153.266 156.258,153.166 176.473,153.221 201.385 L 153.320 246.680 159.853 246.787 L 166.385 246.894 166.493 259.209 C 166.553 265.982,166.479 271.647,166.328 271.797 C 166.178 271.947,153.126 272.024,137.324 271.968 L 108.594 271.865 108.594 259.380 L 108.594 246.894 114.941 246.787 L 121.289 246.680 121.289 200.781 L 121.289 154.883 115.039 154.688 L 108.789 154.492 108.686 142.387 C 108.629 135.729,108.667 130.060,108.771 129.789 C 109.047 129.070,182.545 129.066,183.081 129.785 " stroke="none" fill="#419ab1" fill-rule="evenodd"></path><path id="path3" d="M108.771 129.789 C 108.667 130.060,108.629 135.729,108.686 142.387 L 108.789 154.492 115.039 154.688 L 121.289 154.883 121.289 200.781 L 121.289 246.680 114.941 246.787 L 108.594 246.894 108.594 259.385 C 108.594 267.451,108.732 271.875,108.984 271.875 C 109.237 271.875,109.375 267.516,109.375 259.580 L 109.375 247.285 115.527 247.178 L 121.680 247.070 121.680 200.586 L 121.680 154.102 115.527 153.994 L 109.375 153.886 109.375 141.787 L 109.375 129.688 146.051 129.688 L 182.728 129.688 183.028 130.762 C 183.260 131.591,183.366 131.676,183.493 131.134 C 183.940 129.231,185.301 129.297,145.838 129.297 C 116.544 129.297,108.921 129.398,108.771 129.789 M233.075 129.555 C 232.931 129.700,232.818 130.096,232.824 130.436 C 232.834 130.960,232.897 130.950,233.234 130.371 C 233.609 129.728,235.792 129.688,270.332 129.688 L 307.031 129.688 307.031 141.787 L 307.031 153.886 300.911 153.994 C 297.277 154.058,294.738 154.260,294.660 154.492 C 294.575 154.747,296.733 154.815,300.878 154.688 L 307.227 154.492 307.227 141.992 L 307.227 129.492 270.282 129.393 C 249.962 129.338,233.219 129.411,233.075 129.555 M232.248 132.352 C 232.088 133.066,232.053 133.746,232.170 133.863 C 232.464 134.157,232.930 132.184,232.714 131.560 C 232.618 131.282,232.408 131.639,232.248 132.352 M183.627 132.813 C 183.615 133.350,183.776 134.053,183.984 134.375 C 184.481 135.144,184.481 133.773,183.984 132.617 C 183.677 131.902,183.647 131.918,183.627 132.813 M230.712 138.620 C 230.117 141.026,229.710 143.208,229.806 143.470 C 229.903 143.731,230.103 143.418,230.251 142.773 C 230.400 142.129,230.877 140.157,231.313 138.392 C 231.749 136.626,232.035 134.971,231.949 134.713 C 231.863 134.456,231.306 136.213,230.712 138.620 M184.375 135.732 C 184.375 136.049,184.716 137.675,185.132 139.345 C 185.548 141.016,185.996 142.887,186.128 143.503 C 186.259 144.119,186.465 144.525,186.586 144.404 C 186.809 144.181,184.797 135.156,184.524 135.156 C 184.442 135.156,184.375 135.415,184.375 135.732 M229.123 145.243 C 228.963 145.956,228.928 146.636,229.045 146.754 C 229.339 147.048,229.805 145.074,229.589 144.450 C 229.493 144.173,229.283 144.529,229.123 145.243 M186.752 145.703 C 186.740 146.240,186.901 146.943,187.109 147.266 C 187.606 148.034,187.606 146.664,187.109 145.508 C 186.802 144.792,186.772 144.809,186.752 145.703 M228.342 148.368 C 228.182 149.081,228.147 149.761,228.264 149.879 C 228.558 150.173,229.024 148.199,228.808 147.575 C 228.712 147.298,228.502 147.654,228.342 148.368 M187.500 148.558 C 187.500 148.910,187.841 150.565,188.257 152.236 C 188.673 153.907,189.134 155.801,189.282 156.445 C 189.429 157.090,189.630 157.400,189.728 157.134 C 189.892 156.688,188.005 148.449,187.655 148.079 C 187.570 147.990,187.500 148.205,187.500 148.558 M227.138 153.310 C 226.756 154.933,226.536 156.353,226.649 156.467 C 226.762 156.580,227.167 155.344,227.549 153.721 C 227.932 152.098,228.152 150.678,228.039 150.565 C 227.926 150.452,227.520 151.687,227.138 153.310 M152.924 155.151 C 152.817 155.433,152.774 176.230,152.829 201.367 L 152.930 247.070 159.669 247.266 C 163.375 247.373,166.407 247.333,166.407 247.177 C 166.407 247.021,163.462 246.846,159.863 246.787 L 153.320 246.680 153.221 201.441 C 153.155 171.230,153.252 156.282,153.514 156.444 C 153.730 156.578,153.906 156.335,153.906 155.905 C 153.906 154.969,153.200 154.427,152.924 155.151 M255.859 156.252 C 255.575 157.112,255.459 157.933,255.601 158.075 C 255.743 158.217,255.859 158.128,255.859 157.878 C 255.859 157.627,256.036 157.422,256.252 157.422 C 256.513 157.422,256.611 172.367,256.545 202.051 L 256.445 246.680 249.707 246.787 L 242.969 246.893 242.969 259.384 C 242.969 267.451,243.107 271.875,243.359 271.875 C 243.612 271.875,243.750 267.516,243.750 259.580 L 243.750 247.285 250.293 247.177 L 256.836 247.070 256.935 200.879 C 256.990 175.474,256.886 154.688,256.705 154.688 C 256.523 154.688,256.143 155.391,255.859 156.252 M153.942 157.305 C 153.897 157.900,154.999 162.160,155.267 162.429 C 155.672 162.833,155.441 161.468,154.718 159.180 C 154.311 157.891,153.961 157.047,153.942 157.305 M225.998 158.133 C 225.838 158.847,225.803 159.527,225.920 159.644 C 226.214 159.938,226.680 157.965,226.464 157.341 C 226.368 157.063,226.158 157.420,225.998 158.133 M189.877 158.594 C 189.865 159.131,190.026 159.834,190.234 160.156 C 190.731 160.925,190.731 159.555,190.234 158.398 C 189.927 157.683,189.897 157.699,189.877 158.594 M254.905 159.443 C 254.770 159.943,254.494 160.967,254.291 161.719 C 254.088 162.471,253.567 164.335,253.133 165.862 C 252.163 169.274,252.138 170.528,253.099 167.578 C 254.395 163.597,255.584 158.969,255.366 158.751 C 255.247 158.632,255.039 158.944,254.905 159.443 M225.217 161.258 C 225.057 161.972,225.022 162.652,225.139 162.769 C 225.433 163.063,225.899 161.090,225.683 160.466 C 225.587 160.188,225.377 160.545,225.217 161.258 M190.625 161.361 C 190.624 162.391,192.729 170.446,192.880 169.992 C 193.024 169.562,191.102 161.310,190.780 160.970 C 190.695 160.881,190.625 161.056,190.625 161.361 M155.458 163.118 C 155.436 163.817,159.156 176.634,159.276 176.274 C 159.383 175.952,158.945 174.123,157.801 170.117 C 157.617 169.473,157.290 168.330,157.075 167.578 C 156.860 166.826,156.514 165.538,156.306 164.715 C 155.938 163.259,155.480 162.398,155.458 163.118 M223.657 167.705 C 223.059 170.237,222.668 172.408,222.789 172.529 C 222.910 172.650,223.117 172.244,223.249 171.628 C 223.381 171.012,223.846 169.063,224.282 167.298 C 224.717 165.533,225.000 163.866,224.909 163.595 C 224.819 163.324,224.255 165.173,223.657 167.705 M251.844 170.442 C 251.377 171.630,251.488 172.630,251.991 171.765 C 252.214 171.382,252.335 170.767,252.261 170.398 C 252.137 169.785,252.101 169.789,251.844 170.442 M193.002 171.484 C 192.990 172.021,193.151 172.725,193.359 173.047 C 193.856 173.816,193.856 172.445,193.359 171.289 C 193.052 170.574,193.022 170.590,193.002 171.484 M250.999 173.506 C 250.102 176.836,249.876 177.645,249.601 178.516 C 248.898 180.745,248.342 183.237,248.509 183.405 C 248.608 183.504,249.359 181.208,250.179 178.304 C 250.998 175.399,251.573 172.927,251.456 172.810 C 251.339 172.693,251.133 173.006,250.999 173.506 M222.092 174.149 C 221.932 174.863,221.897 175.543,222.014 175.660 C 222.308 175.954,222.774 173.981,222.558 173.357 C 222.462 173.079,222.252 173.435,222.092 174.149 M193.783 174.609 C 193.772 175.146,193.932 175.850,194.141 176.172 C 194.637 176.941,194.637 175.570,194.141 174.414 C 193.833 173.699,193.803 173.715,193.783 174.609 M220.556 180.417 C 219.961 182.823,219.541 184.991,219.622 185.234 C 219.704 185.478,220.256 183.708,220.851 181.302 C 221.445 178.896,221.865 176.728,221.784 176.484 C 221.703 176.241,221.150 178.010,220.556 180.417 M159.387 177.539 C 159.387 177.969,159.557 178.584,159.766 178.906 C 160.079 179.391,160.144 179.358,160.144 178.711 C 160.144 178.281,159.974 177.666,159.766 177.344 C 159.452 176.859,159.387 176.892,159.387 177.539 M194.531 177.464 C 194.531 177.816,194.872 179.471,195.288 181.142 C 195.705 182.813,196.166 184.707,196.313 185.352 C 196.460 185.996,196.661 186.306,196.759 186.040 C 196.923 185.595,195.036 177.355,194.686 176.986 C 194.601 176.896,194.531 177.111,194.531 177.464 M160.146 179.915 C 160.125 180.621,163.060 190.703,163.181 190.341 C 163.289 190.015,162.854 188.194,161.707 184.180 C 161.523 183.535,161.202 182.335,160.994 181.512 C 160.625 180.056,160.167 179.194,160.146 179.915 M247.938 184.505 C 247.470 185.693,247.582 186.692,248.085 185.828 C 248.308 185.445,248.429 184.830,248.355 184.460 C 248.231 183.847,248.195 183.851,247.938 184.505 M218.967 187.040 C 218.807 187.753,218.772 188.433,218.889 188.551 C 219.183 188.844,219.649 186.871,219.433 186.247 C 219.337 185.969,219.127 186.326,218.967 187.040 M196.908 187.500 C 196.897 188.037,197.057 188.740,197.266 189.063 C 197.762 189.831,197.762 188.461,197.266 187.305 C 196.958 186.589,196.928 186.606,196.908 187.500 M247.087 187.695 C 246.935 188.340,246.670 189.307,246.498 189.844 C 246.325 190.381,245.992 191.523,245.756 192.383 C 245.521 193.242,244.963 195.231,244.515 196.803 C 244.068 198.374,243.779 199.868,243.873 200.123 C 243.967 200.378,244.173 200.059,244.331 199.414 C 244.489 198.770,245.311 195.808,246.157 192.833 C 247.003 189.858,247.621 187.221,247.529 186.974 C 247.437 186.726,247.238 187.051,247.087 187.695 M218.186 190.165 C 218.025 190.878,217.990 191.558,218.108 191.676 C 218.402 191.969,218.867 189.996,218.651 189.372 C 218.555 189.094,218.346 189.451,218.186 190.165 M197.656 190.267 C 197.655 191.297,199.760 199.352,199.912 198.898 C 200.055 198.468,198.133 190.216,197.811 189.876 C 197.726 189.787,197.656 189.963,197.656 190.267 M163.293 191.602 C 163.293 192.031,163.464 192.646,163.672 192.969 C 163.985 193.454,164.051 193.420,164.051 192.773 C 164.051 192.344,163.880 191.729,163.672 191.406 C 163.358 190.921,163.293 190.955,163.293 191.602 M216.982 195.107 C 216.600 196.730,216.379 198.150,216.493 198.263 C 216.606 198.376,217.011 197.141,217.393 195.518 C 217.775 193.895,217.996 192.475,217.882 192.362 C 217.769 192.249,217.364 193.484,216.982 195.107 M164.089 194.073 C 164.074 194.359,164.746 196.995,165.582 199.933 C 166.417 202.870,167.217 205.778,167.358 206.394 C 167.500 207.010,167.721 207.409,167.849 207.281 C 168.048 207.082,167.048 202.885,166.022 199.609 C 165.853 199.072,165.501 197.842,165.238 196.875 C 164.633 194.647,164.123 193.404,164.089 194.073 M215.842 199.930 C 215.682 200.644,215.647 201.324,215.764 201.441 C 216.058 201.735,216.524 199.762,216.308 199.138 C 216.212 198.860,216.002 199.217,215.842 199.930 M200.033 200.391 C 200.022 200.928,200.182 201.631,200.391 201.953 C 200.887 202.722,200.887 201.352,200.391 200.195 C 200.083 199.480,200.053 199.496,200.033 200.391 M243.180 201.758 C 243.029 202.402,242.764 203.369,242.592 203.906 C 242.419 204.443,242.086 205.586,241.850 206.445 C 241.615 207.305,241.056 209.294,240.609 210.865 C 240.162 212.437,239.873 213.931,239.967 214.186 C 240.061 214.440,240.267 214.121,240.425 213.477 C 240.583 212.832,241.404 209.871,242.251 206.895 C 243.097 203.920,243.715 201.284,243.623 201.036 C 243.531 200.788,243.332 201.113,243.180 201.758 M215.061 203.055 C 214.900 203.769,214.865 204.449,214.983 204.566 C 215.277 204.860,215.742 202.887,215.526 202.263 C 215.430 201.985,215.221 202.342,215.061 203.055 M200.815 203.516 C 200.803 204.053,200.964 204.756,201.172 205.078 C 201.669 205.847,201.669 204.477,201.172 203.320 C 200.864 202.605,200.834 202.621,200.815 203.516 M213.524 209.323 C 212.930 211.729,212.522 213.912,212.619 214.173 C 212.715 214.435,212.916 214.121,213.064 213.477 C 213.212 212.832,213.690 210.860,214.125 209.095 C 214.561 207.330,214.847 205.674,214.761 205.417 C 214.675 205.159,214.119 206.917,213.524 209.323 M201.563 206.370 C 201.563 206.722,201.903 208.378,202.319 210.048 C 202.736 211.719,203.197 213.613,203.344 214.258 C 203.491 214.902,203.692 215.212,203.790 214.946 C 203.954 214.501,202.068 206.261,201.717 205.892 C 201.632 205.802,201.563 206.018,201.563 206.370 M167.995 208.136 C 167.981 208.421,168.652 211.058,169.488 213.995 C 170.323 216.933,171.123 219.840,171.265 220.456 C 171.406 221.072,171.627 221.472,171.755 221.344 C 171.954 221.145,170.954 216.947,169.928 213.672 C 169.760 213.135,169.407 211.904,169.144 210.938 C 168.539 208.709,168.029 207.466,167.995 208.136 M211.936 215.946 C 211.775 216.660,211.740 217.339,211.858 217.457 C 212.152 217.751,212.617 215.777,212.401 215.153 C 212.305 214.876,212.096 215.232,211.936 215.946 M239.274 215.820 C 239.123 216.465,238.858 217.432,238.685 217.969 C 238.513 218.506,238.155 219.736,237.891 220.703 C 237.626 221.670,237.271 222.900,237.101 223.438 C 236.333 225.874,235.850 228.167,236.060 228.378 C 236.187 228.504,236.406 228.104,236.548 227.487 C 236.690 226.871,237.498 223.933,238.344 220.958 C 239.191 217.983,239.808 215.346,239.716 215.099 C 239.625 214.851,239.426 215.176,239.274 215.820 M203.940 216.406 C 203.928 216.943,204.089 217.646,204.297 217.969 C 204.794 218.738,204.794 217.367,204.297 216.211 C 203.989 215.495,203.959 215.512,203.940 216.406 M210.399 222.213 C 209.805 224.620,209.385 226.788,209.466 227.031 C 209.547 227.275,210.100 225.505,210.694 223.099 C 211.289 220.693,211.709 218.525,211.628 218.281 C 211.546 218.038,210.994 219.807,210.399 222.213 M204.688 219.261 C 204.688 219.613,205.028 221.268,205.444 222.939 C 205.861 224.610,206.322 226.504,206.469 227.148 C 206.616 227.793,206.817 228.103,206.915 227.837 C 207.079 227.391,205.193 219.152,204.842 218.783 C 204.757 218.693,204.688 218.908,204.688 219.261 M171.887 222.461 C 171.887 222.891,172.057 223.506,172.266 223.828 C 172.579 224.313,172.644 224.280,172.644 223.633 C 172.644 223.203,172.474 222.588,172.266 222.266 C 171.952 221.780,171.887 221.814,171.887 222.461 M172.656 224.974 C 172.656 225.247,173.165 227.253,173.786 229.434 C 174.407 231.614,175.044 233.926,175.201 234.570 C 175.358 235.215,175.558 235.551,175.646 235.317 C 175.785 234.944,175.397 233.267,174.207 229.102 C 174.023 228.457,173.702 227.257,173.494 226.434 C 173.102 224.886,172.656 224.109,172.656 224.974 M208.811 228.837 C 208.650 229.550,208.615 230.230,208.733 230.347 C 209.027 230.641,209.492 228.668,209.276 228.044 C 209.180 227.766,208.971 228.123,208.811 228.837 M207.081 229.181 C 207.023 230.186,207.790 232.031,208.266 232.031 C 208.446 232.031,208.594 231.855,208.594 231.641 C 208.594 231.426,208.449 231.250,208.272 231.250 C 208.095 231.250,207.766 230.591,207.540 229.785 C 207.260 228.786,207.114 228.594,207.081 229.181 M235.438 229.426 C 234.970 230.615,235.082 231.614,235.585 230.749 C 235.808 230.367,235.929 229.751,235.855 229.382 C 235.731 228.769,235.695 228.773,235.438 229.426 M234.618 232.422 C 234.469 232.959,234.158 234.102,233.925 234.961 C 233.693 235.820,233.365 236.963,233.195 237.500 C 232.427 239.937,231.943 242.230,232.154 242.440 C 232.280 242.567,232.499 242.166,232.640 241.550 C 232.781 240.934,233.415 238.613,234.048 236.392 C 234.681 234.171,235.129 232.150,235.043 231.900 C 234.958 231.650,234.766 231.885,234.618 232.422 M175.793 236.523 C 175.793 236.953,175.964 237.568,176.172 237.891 C 176.485 238.376,176.551 238.342,176.551 237.695 C 176.551 237.266,176.380 236.650,176.172 236.328 C 175.858 235.843,175.793 235.877,175.793 236.523 M176.589 239.004 C 176.574 239.294,177.092 241.404,177.740 243.692 C 178.818 247.503,179.218 248.946,179.905 251.494 C 180.039 251.994,180.247 252.305,180.366 252.186 C 180.551 252.001,179.516 247.705,178.522 244.531 C 178.353 243.994,178.001 242.764,177.738 241.797 C 177.130 239.559,176.623 238.326,176.589 239.004 M231.531 243.489 C 231.064 244.677,231.176 245.677,231.679 244.812 C 231.902 244.429,232.023 243.814,231.948 243.445 C 231.825 242.832,231.788 242.836,231.531 243.489 M230.680 246.680 C 230.529 247.324,230.264 248.291,230.092 248.828 C 229.919 249.365,229.586 250.508,229.350 251.367 C 229.115 252.227,228.567 254.179,228.133 255.706 C 227.699 257.233,227.356 258.727,227.370 259.026 C 227.403 259.697,227.899 258.531,228.469 256.445 C 228.704 255.586,229.435 252.978,230.094 250.650 C 230.753 248.322,231.217 246.212,231.124 245.962 C 231.032 245.712,230.832 246.035,230.680 246.680 M294.531 246.973 C 294.531 247.134,297.344 247.266,300.781 247.266 L 307.031 247.266 307.031 259.297 C 307.031 268.399,306.912 271.448,306.543 271.820 C 306.151 272.214,306.190 272.260,306.738 272.052 C 307.370 271.811,307.422 270.839,307.422 259.351 L 307.422 246.911 300.976 246.796 C 297.431 246.732,294.530 246.812,294.531 246.973 M180.495 253.067 C 180.481 253.357,180.998 255.466,181.646 257.754 C 182.724 261.566,183.125 263.008,183.811 265.557 C 183.946 266.056,184.153 266.368,184.272 266.249 C 184.457 266.064,183.422 261.768,182.428 258.594 C 182.260 258.057,181.907 256.826,181.644 255.859 C 181.037 253.622,180.529 252.388,180.495 253.067 M226.774 260.742 C 226.623 261.387,226.358 262.354,226.185 262.891 C 226.013 263.428,225.684 264.570,225.454 265.430 C 225.224 266.289,224.702 268.091,224.294 269.434 C 223.885 270.776,223.673 271.875,223.822 271.875 C 224.120 271.875,224.404 271.016,226.188 264.712 C 226.847 262.384,227.311 260.275,227.218 260.025 C 227.125 259.775,226.926 260.098,226.774 260.742 M184.381 267.127 C 184.368 268.282,185.614 271.817,186.100 272.003 C 186.467 272.145,186.405 271.764,185.887 270.690 C 185.485 269.859,185.154 268.862,185.150 268.476 C 185.143 267.623,184.390 266.303,184.381 267.127 " stroke="none" fill="#91c4d2" fill-rule="evenodd"></path><path id="path4" d="" stroke="none" fill="#00ffff" fill-rule="evenodd"></path></g></svg>